<?xml version="1.0" encoding="UTF-8"?><svg id="Layer_2" xmlns="http://www.w3.org/2000/svg" viewBox="0 0 190.89 30.79"><defs><style>.cls-1{fill:#cc3b32;}</style></defs><g id="Layer_1-2"><path class="cls-1" d="M0,16.54c0-1.47.36-2.86,1.08-4.17s1.79-2.38,3.21-3.21c1.42-.82,3.13-1.24,5.14-1.24,2.78,0,4.92.79,6.41,2.38,1.49,1.58,2.33,3.74,2.51,6.47h-4.1c-.1-1.57-.52-2.8-1.26-3.69-.73-.89-1.93-1.33-3.57-1.33-1.24,0-2.22.22-2.96.66-.73.44-1.27,1.02-1.6,1.76-.33.73-.5,1.53-.5,2.38H0ZM8,30.79c-1.42,0-2.69-.26-3.83-.79-1.13-.53-2.03-1.29-2.68-2.3-.66-1-.99-2.23-.99-3.67,0-1.7.41-3.04,1.24-4.02.82-.98,1.92-1.7,3.28-2.16s2.85-.77,4.46-.91c1.61-.14,3.2-.2,4.77-.17v3.44c-3.22-.1-5.59.16-7.11.79-1.52.63-2.28,1.59-2.28,2.88,0,1.11.35,1.93,1.06,2.45.71.53,1.69.79,2.96.79,1.03,0,1.95-.21,2.76-.64.81-.42,1.45-1.05,1.91-1.87.46-.82.69-1.82.69-2.97v-2.59h4.13v11.13h-4.13v-2.4c-.64.95-1.49,1.69-2.55,2.22-1.06.53-2.29.79-3.71.79Z"/><path class="cls-1" d="M21.98,1l4.6-1,1.04,4.67-4.64,1.04-1-4.71ZM23.22,8.54h4.17v21.64h-4.17V8.54Z"/><path class="cls-1" d="M40.49,30.79c-1.91,0-3.59-.48-5.06-1.45-1.47-.97-2.61-2.31-3.44-4.04-.82-1.73-1.24-3.7-1.24-5.91s.41-4.22,1.24-5.95c.82-1.73,1.97-3.08,3.44-4.06,1.47-.98,3.15-1.47,5.06-1.47s3.46.44,4.75,1.31c1.29.88,2.28,2.06,2.97,3.55v13.21c-.64,1.42-1.61,2.57-2.9,3.46s-2.9,1.33-4.83,1.33ZM40.68,28.16c1.67,0,3.07-.37,4.17-1.12,1.11-.75,1.94-1.78,2.51-3.11.57-1.33.85-2.84.85-4.54s-.28-3.25-.85-4.58c-.57-1.33-1.4-2.37-2.51-3.13s-2.5-1.14-4.17-1.14c-1.37,0-2.58.35-3.63,1.04-1.06.7-1.88,1.71-2.47,3.03-.59,1.33-.89,2.92-.89,4.77s.3,3.4.89,4.71,1.42,2.32,2.47,3.01c1.06.7,2.27,1.04,3.63,1.04ZM48.22,30.17V1.2h2.82v28.98h-2.82Z"/><path class="cls-1" d="M65.25,30.79c-2.11,0-3.97-.44-5.58-1.33-1.61-.89-2.89-2.12-3.83-3.69-.94-1.57-1.47-3.39-1.6-5.45h2.98c.18,2.32.96,4.2,2.34,5.66,1.38,1.46,3.28,2.18,5.7,2.18,1.98,0,3.52-.47,4.6-1.41,1.08-.94,1.83-2.08,2.24-3.42h2.97c-.36,1.49-.98,2.79-1.85,3.9-.88,1.11-1.98,1.98-3.32,2.61s-2.89.95-4.64.95ZM57.22,20.32v-2.55h17l-1.66,1.39c0-1.7-.3-3.19-.89-4.48s-1.43-2.3-2.51-3.03c-1.08-.73-2.38-1.1-3.9-1.1-2.29,0-4.13.67-5.52,2.01-1.39,1.34-2.23,3.08-2.51,5.22h-2.94c.23-1.96.82-3.68,1.78-5.16.95-1.48,2.21-2.63,3.79-3.46s3.37-1.24,5.41-1.24c1.47,0,2.83.28,4.09.83,1.26.55,2.35,1.37,3.27,2.43.91,1.07,1.6,2.37,2.05,3.9.45,1.53.61,3.28.48,5.24h-17.93Z"/><path class="cls-1" d="M77.89,16.54c0-1.47.35-2.86,1.04-4.17.69-1.31,1.72-2.38,3.07-3.21,1.35-.82,3.01-1.24,4.96-1.24,2.73,0,4.8.81,6.22,2.43,1.42,1.62,2.19,3.83,2.32,6.61h-2.78c-.1-2.06-.63-3.64-1.58-4.75-.95-1.11-2.34-1.66-4.17-1.66-1.37,0-2.49.27-3.38.81-.89.54-1.55,1.26-1.99,2.16-.44.9-.66,1.91-.66,3.01h-3.05ZM85.88,30.79c-1.42,0-2.7-.26-3.86-.79-1.16-.53-2.08-1.29-2.76-2.3-.68-1-1.02-2.23-1.02-3.67,0-1.7.43-3.04,1.28-4.02.85-.98,1.98-1.69,3.4-2.14s2.98-.73,4.69-.83c1.71-.1,3.42-.13,5.12-.08v2.2c-3.84-.15-6.72.19-8.66,1.02-1.93.84-2.9,2.07-2.9,3.69,0,1.49.45,2.63,1.35,3.42.9.79,2.27,1.18,4.1,1.18,1.36,0,2.5-.33,3.4-.99.9-.66,1.58-1.51,2.03-2.55.45-1.04.68-2.14.68-3.3v-2.47h2.82v11.01h-2.82v-2.7c-.67,1.08-1.55,1.91-2.65,2.47-1.1.57-2.49.85-4.19.85Z"/><path class="cls-1" d="M102.5,8.04l-5.87-1.51.73-2.28,5.64,2.24-.23.77-.27.77ZM100.18,12.9l-1.97-1.43,3.9-4.67.66.46.66.5-3.25,5.14ZM101.95,7.26l-.39-6.07h2.4l-.39,6.07h-1.62ZM105.35,12.9l-3.25-5.14.66-.5.66-.46,3.9,4.67-1.97,1.43ZM103.04,8.04l-.27-.77-.23-.77,5.64-2.24.73,2.28-5.87,1.51Z"/><path class="cls-1" d="M110.72,8.54h11.09v2.4h-11.09v-2.4ZM113.2,1.2h9.54v2.4h-6.72v26.58h-2.82V1.2Z"/><path class="cls-1" d="M134.02,30.79c-2.24,0-4.19-.48-5.83-1.45-1.65-.97-2.93-2.31-3.84-4.04-.91-1.73-1.37-3.7-1.37-5.91s.46-4.22,1.37-5.95c.91-1.73,2.2-3.08,3.84-4.06,1.65-.98,3.59-1.47,5.83-1.47s4.19.49,5.83,1.47c1.65.98,2.93,2.33,3.84,4.06.91,1.73,1.37,3.71,1.37,5.95s-.46,4.19-1.37,5.91c-.91,1.73-2.2,3.07-3.84,4.04-1.65.97-3.59,1.45-5.83,1.45ZM134.02,28.16c1.57,0,2.97-.35,4.19-1.04s2.18-1.7,2.88-3.01c.69-1.31,1.04-2.88,1.04-4.71s-.35-3.44-1.04-4.77c-.7-1.33-1.66-2.34-2.88-3.03s-2.62-1.04-4.19-1.04-2.97.35-4.19,1.04-2.18,1.71-2.88,3.03c-.7,1.33-1.04,2.92-1.04,4.77s.35,3.4,1.04,4.71c.69,1.31,1.65,2.32,2.88,3.01s2.62,1.04,4.19,1.04Z"/><path class="cls-1" d="M148.28,8.54h2.82v21.64h-2.82V8.54ZM151.1,18.04l-.58-2.43c0-.67.1-1.44.31-2.32.21-.88.6-1.72,1.18-2.53s1.41-1.49,2.49-2.03,2.49-.81,4.21-.81v2.98c-1.52,0-2.85.24-4,.71-1.15.48-2.04,1.24-2.67,2.28-.63,1.04-.95,2.43-.95,4.15Z"/><path class="cls-1" d="M161.57,8.54h2.82v21.64h-2.82V8.54ZM164.39,19.2l-.62-4.06c0-.67.12-1.42.37-2.24.24-.82.64-1.62,1.2-2.38.55-.76,1.28-1.38,2.18-1.87.9-.49,2.01-.73,3.32-.73,1.39,0,2.59.28,3.61.85s1.8,1.5,2.36,2.8c.55,1.3.83,3.06.83,5.27v13.33h-2.82v-12.83c0-1.49-.12-2.76-.37-3.79-.25-1.03-.7-1.82-1.35-2.36-.66-.54-1.6-.81-2.84-.81-1.16,0-2.18.38-3.05,1.14-.88.76-1.56,1.8-2.07,3.11-.5,1.31-.75,2.83-.75,4.56ZM177.64,19.2l-.62-4.06c0-.67.12-1.42.37-2.24s.64-1.62,1.2-2.38c.55-.76,1.28-1.38,2.18-1.87.9-.49,2.01-.73,3.32-.73,1.39,0,2.59.28,3.61.85s1.8,1.5,2.36,2.8c.55,1.3.83,3.06.83,5.27v13.33h-2.82v-12.83c0-1.49-.12-2.76-.37-3.79s-.69-1.82-1.35-2.36c-.66-.54-1.6-.81-2.84-.81-1.16,0-2.18.38-3.05,1.14-.88.76-1.56,1.8-2.07,3.11s-.75,2.83-.75,4.56Z"/></g></svg>