<?xml version="1.0" encoding="UTF-8"?>
<svg id="Layer_1" xmlns="http://www.w3.org/2000/svg" version="1.1" viewBox="0 0 1920 1080">
  <!-- Generator: Adobe Illustrator 30.0.0, SVG Export Plug-In . SVG Version: 2.1.1 Build 123)  -->
  <defs>
    <style>
      .st0 {
        fill: #231f20;
      }
    </style>
  </defs>
  <path class="st0" d="M840.48,489.13c0-46.44-35.38-90.6-100.61-90.6l-75.12.07,23.51,61.95h48.6c19.82,0,31.38,13.89,31.38,28.57s-11.56,28.58-31.38,28.58h-26.91l61.84,163.11h86.11l-55.95-123.07c20.02-12.68,38.54-35.25,38.54-68.62h-.01Z"/>
  <polygon class="st0" points="466.6 680.82 549.06 680.82 654.5 398.62 573.7 398.62 466.6 680.82"/>
  <polygon class="st0" points="1037.87 540.51 943.86 398.62 880.78 398.62 880.78 680.82 952.93 680.82 952.93 538.93 1046.94 680.82 1110.02 680.82 1110.02 398.62 1037.87 398.62 1037.87 540.51"/>
  <path class="st0" d="M1672.67,563.11c23.09-11.1,47.83-35.28,47.83-73.72,0-46.37-35.05-90.76-100.19-90.76h-116.27v282.2h72.15v-105.03h24.33l51.95,105.03h83.7l-63.49-117.71h0ZM1617.01,517.93h-40.82v-57.07h40.82c19.79,0,31.34,13.87,31.34,28.53s-11.55,28.54-31.34,28.54Z"/>
  <polygon class="st0" points="1264.68 398.62 1264.68 680.82 1464.23 680.82 1464.23 618.99 1336.83 618.99 1336.83 569.45 1445.75 569.45 1445.68 507.62 1336.83 507.62 1336.83 460.45 1464.23 460.45 1464.23 398.62 1300.34 398.62 1264.68 398.62"/>
  <rect class="st0" x="1151.27" y="398.62" width="72.15" height="282.2"/>
  <path class="st0" d="M480.24,517.96h-146.39v59.42h76.01c-11.73,29.39-41.43,48.21-76.52,48.21-48.31,0-84.74-36.77-84.74-85.53s36.43-85.52,84.74-85.52c30.44,0,57.04,14.27,71.16,38.16l2.57,4.34h69.03l-3.7-11.55c-17.94-55.92-73.82-93.5-139.07-93.5-85.75,0-150.41,63.66-150.41,148.07s64.66,148.07,150.41,148.07,146.89-62.65,146.89-145.73v-24.44h.02Z"/>
</svg>